<svg id="outline-monetization_on-24px" xmlns="http://www.w3.org/2000/svg" width="48" height="48" viewBox="0 0 48 48">
  <g id="Bounding_Boxes">
    <path id="Path_2885" data-name="Path 2885" d="M0,0H48V48H0Z" fill="none"/>
  </g>
  <g id="Outline" transform="translate(4 4)">
    <g id="Group_225" data-name="Group 225">
      <path id="Path_2886" data-name="Path 2886" d="M22,2A20,20,0,1,0,42,22,20.007,20.007,0,0,0,22,2Zm0,36A16,16,0,1,1,38,22,16.021,16.021,0,0,1,22,38Z" transform="translate(-2 -2)" fill="#ed1b24"/>
      <path id="Path_2887" data-name="Path 2887" d="M16.58,17.28c-3.54-.9-4.68-1.88-4.68-3.34,0-1.68,1.58-2.86,4.2-2.86,2.76,0,3.8,1.32,3.88,3.28H23.4a6.206,6.206,0,0,0-4.98-5.94V5H13.76V8.38c-3.02.64-5.44,2.6-5.44,5.62,0,3.58,2.98,5.38,7.32,6.42,3.9.92,4.68,2.3,4.68,3.74,0,1.06-.78,2.78-4.2,2.78-3.2,0-4.46-1.44-4.64-3.28H8.04c.2,3.4,2.72,5.32,5.72,5.94V33h4.68V29.66c3.04-.58,5.44-2.32,5.46-5.54C23.88,19.72,20.1,18.2,16.58,17.28Z" transform="translate(4.04 1)" fill="#474d57"/>
    </g>
  </g>
</svg>
