<svg id="outline-beach_access-24px" xmlns="http://www.w3.org/2000/svg" width="48" height="48" viewBox="0 0 48 48">
  <g id="Bounding_Boxes">
    <path id="Path_3427" data-name="Path 3427" d="M0,0H48V48H0Z" fill="none"/>
  </g>
  <g id="Outline" transform="translate(6.026 6.011)">
    <g id="Group_367" data-name="Group 367">
      <rect id="Rectangle_222" data-name="Rectangle 222" width="4.048" height="18.254" transform="translate(35.965 33.111) rotate(135)" fill="#474d57"/>
      <path id="Path_3428" data-name="Path 3428" d="M23.218,3A20.158,20.158,0,0,0,8.948,8.9h0l-.02.02a20.228,20.228,0,0,0,0,28.6l28.579-28.6A20.156,20.156,0,0,0,23.218,3ZM9.268,31.519A16.115,16.115,0,0,1,6.99,23.225a15.929,15.929,0,0,1,.919-5.336,22.553,22.553,0,0,0,4.137,10.872Zm5.676-5.676a18.183,18.183,0,0,1-2.758-13.65,17.17,17.17,0,0,1,3.5-.36,18.4,18.4,0,0,1,10.153,3.118ZM17.882,7.916A15.929,15.929,0,0,1,23.218,7a16.115,16.115,0,0,1,8.294,2.278l-2.778,2.778A22.483,22.483,0,0,0,17.882,7.916Z" transform="translate(-3.007 -3)" fill="#ed1b24"/>
    </g>
  </g>
</svg>
